<svg width="51" height="49" viewBox="0 0 51 49" fill="none" xmlns="http://www.w3.org/2000/svg">
<path d="M16.7049 4.01146L16.3309 6.61421L4.47767 17.5786C4.0278 17.9543 3.69155 18.4479 3.50667 19.0041C3.43528 19.2117 3.38417 19.4257 3.35406 19.6431V20.4984C3.80854 20.5352 4.33345 20.4984 4.90532 20.3709L42.4104 9.61106C42.5352 9.57524 42.6666 9.56887 42.7942 9.59245C42.9218 9.61603 43.0423 9.66892 43.146 9.74695C43.2497 9.82499 43.3339 9.92604 43.3919 10.0421C43.4499 10.1582 43.4802 10.2862 43.4804 10.416V18.5429C43.4812 18.7229 43.4239 18.8984 43.3169 19.0431C43.2099 19.1879 43.059 19.2942 42.8867 19.3462C35.709 21.5096 7.17434 30.1077 6.47334 30.2972C5.6801 30.5153 3.92425 30.844 3.35406 30.7702V36.0277C3.86556 36.0981 4.39717 36.078 4.90532 35.9421L42.4088 25.0834C42.5336 25.0472 42.6652 25.0406 42.793 25.064C42.9209 25.0875 43.0415 25.1403 43.1455 25.2184C43.2494 25.2964 43.3338 25.3976 43.3919 25.5139C43.45 25.6302 43.4803 25.7583 43.4804 25.8883V33.6899L44.7449 33.3276L44.7566 33.3243L44.827 33.3008C45.2376 33.1656 45.6328 32.9874 46.006 32.7692C46.7657 32.3164 46.8344 32.0095 46.8344 31.9709V10.1293C46.8344 9.76367 46.6835 9.11634 46.2861 8.49081C45.9138 7.90385 45.3855 7.42925 44.6929 7.19949L30.8456 3.95276C30.7844 3.40031 30.6097 2.86647 30.3325 2.38474C29.992 1.71225 29.3212 0.791559 28.6739 0L45.523 3.94941C45.5625 3.95914 45.6017 3.97033 45.6404 3.98295C47.2587 4.48606 48.3974 5.55936 49.1169 6.69303C49.8212 7.79987 50.1885 9.06268 50.1885 10.1293V31.9709C50.1885 33.9498 48.6071 35.1237 47.7182 35.652C47.0958 36.0186 46.4336 36.3129 45.7444 36.5291L45.7008 36.5425L45.6857 36.5459L45.6806 36.5475C45.6806 36.5475 45.4358 36.618 45.6773 36.5475L4.74432 48.2968C4.72043 48.3035 4.69639 48.3097 4.67221 48.3153C3.47649 48.6004 2.11809 48.5249 1.1169 47.5019C0.219691 46.5862 0 45.2798 0 44.1143V19.571L0.00167711 19.4804V19.4552L0.00670824 19.4183C0.0167112 19.2687 0.0351882 19.1198 0.0620502 18.9722C0.109007 18.7006 0.191182 18.3333 0.335406 17.9124C0.704246 16.823 1.35524 15.8509 2.22207 15.095L17.9794 0.521556C17.9435 0.573023 17.9082 0.625017 17.8738 0.677521C17.1091 1.8615 16.876 3.09748 16.7619 3.70288L16.7552 3.74313C16.7394 3.83275 16.7226 3.9222 16.7049 4.01146Z" fill="#474747"/>
</svg>
