<svg width="118" height="25" viewBox="0 0 118 25" fill="none" xmlns="http://www.w3.org/2000/svg">
<path d="M98.7877 0.346425H94.6874C94.4562 0.346425 94.3408 0.461992 94.3408 0.693034V16.9217C94.3408 17.7303 94.0809 18.3366 93.7342 18.7989C93.3879 19.2609 92.9259 19.3763 92.3482 19.3763C91.7708 19.3763 91.2798 19.1452 90.9333 18.7989C90.5869 18.3366 90.3559 17.7303 90.3559 16.9217V0.693034C90.3559 0.461992 90.1246 0.346425 90.0092 0.346425H85.8797C85.6487 0.346425 85.5333 0.461992 85.5333 0.693034V17.0374C85.5333 19.1453 85.9954 21.1378 87.2947 22.4371C88.5653 23.7367 90.3269 24.4298 92.3481 24.4298C94.4561 24.4298 96.2176 23.7368 97.4015 22.4371C98.6722 21.1668 99.1631 19.2899 99.1631 17.0374V0.693034C99.2786 0.577651 99.0477 0.346425 98.7877 0.346425ZM114.526 11.8685C115.219 11.1753 116.518 9.52936 116.518 7.39252C116.518 4.90925 115.565 3.40762 114.844 2.57001C113.544 1.18394 111.811 0.461992 109.79 0.461992H103.322C103.062 0.461992 102.946 0.693034 102.946 0.808417V23.7367C102.946 23.9677 103.177 24.0834 103.322 24.0834H110.165C112.273 24.0834 114.266 23.2748 115.565 21.5999C116.258 20.6758 117.096 19.1163 117.096 16.7775C116.865 13.9764 115.132 12.3304 114.526 11.8685ZM107.711 5.16884H109.819C110.396 5.16884 110.858 5.28423 111.205 5.7464C111.58 6.12174 111.696 6.69939 111.696 7.42125C111.696 8.14311 111.58 8.69166 111.205 9.18284C110.858 9.52927 110.396 9.76031 109.934 9.76031H107.826V5.16884H107.711ZM111.465 18.6832C111.118 19.1453 110.656 19.2608 109.934 19.2608H107.595V14.2939H109.934C110.512 14.2939 110.974 14.5537 111.32 14.9005C111.696 15.3624 111.927 15.9399 111.927 16.6618C112.042 17.6147 111.84 18.1924 111.465 18.6832ZM27.8374 13.8608C28.2994 13.5144 28.6748 13.2833 29.0213 12.7924C29.8299 11.8684 30.8982 10.2222 30.8982 7.62338C30.8982 5.13993 29.9453 3.52291 29.0213 2.57001C27.8374 1.18394 26.0758 0.461992 24.0834 0.346425H17.2684C17.0374 0.346425 16.9219 0.577651 16.9219 0.693034V23.5925C16.9219 23.8235 17.1529 23.939 17.2684 23.939H21.3689C21.5999 23.939 21.7155 23.7078 21.7155 23.5925V15.1315H23.1305L25.7005 23.8235C25.7005 23.939 25.9603 24.0544 26.0759 24.0544H30.4074C30.5229 24.0544 30.6385 23.939 30.7539 23.939C30.8694 23.939 30.8694 23.7078 30.8694 23.5925L27.8374 13.8608ZM25.2384 9.61574C24.8919 10.0781 24.3143 10.3377 23.5924 10.3377H21.5998V5.16884H23.5924C24.2854 5.16884 24.8629 5.39989 25.2384 5.86188C25.7004 6.35297 25.8448 6.93044 25.8448 7.73904C25.8448 8.57637 25.7293 9.15374 25.2384 9.61574ZM62.5762 11.8685C63.2982 11.1753 64.5689 9.52936 64.5689 7.39252C64.5689 4.90925 63.6448 3.40762 62.9228 2.57001C61.6234 1.18394 59.8617 0.461992 57.8694 0.461992H51.4297C51.1987 0.461992 51.0832 0.693034 51.0832 0.808417V23.7367C51.0832 23.9677 51.3143 24.0834 51.4297 24.0834H58.2447C60.3527 24.0834 62.3453 23.2748 63.6735 21.5999C64.3666 20.6758 65.2041 19.1163 65.2041 16.7775C65.0598 13.9764 63.2982 12.3304 62.5762 11.8685ZM55.7901 5.16884H57.8982C58.4758 5.16884 58.9378 5.28423 59.2844 5.7464C59.6308 6.12174 59.7464 6.69939 59.7464 7.42125C59.7464 8.14311 59.6308 8.69166 59.2844 9.18284C58.9378 9.52927 58.4758 9.76031 58.0137 9.76031H55.9056V5.16884H55.7901ZM59.6596 18.6832C59.3133 19.1453 58.851 19.2608 58.1292 19.2608H55.7901V14.2939H58.1292C58.7066 14.2939 59.1687 14.5537 59.5152 14.9005C59.8616 15.3624 60.1216 15.9399 60.1216 16.6618C60.1505 17.6147 60.0351 18.1924 59.6596 18.6832ZM6.78614 0C4.67803 0 2.91662 0.693034 1.73268 1.99236C0.461992 3.29187 0 5.13993 0 7.39243V17.1526C0 19.2609 0.461992 21.2531 1.73268 22.5528C3.03209 23.8524 4.7936 24.5454 6.78614 24.5454C8.89406 24.5454 10.6844 23.8525 11.8683 22.5528C13.139 21.2821 13.601 19.4051 13.601 17.1526V11.7815C13.601 11.5218 13.37 11.2909 13.139 11.2909H7.16148C6.90171 11.2909 6.67066 11.5218 6.67066 11.7815V15.7667C6.67066 15.9976 6.90171 16.2288 7.16148 16.2288H8.69203V17.1817C8.69203 17.9903 8.46099 18.7122 8.11456 19.1743C7.76786 19.6364 7.27714 19.7518 6.69949 19.7518C6.12202 19.7518 5.65993 19.5208 5.28459 19.1743C4.93808 18.7122 4.70713 17.9903 4.70713 17.1817V7.537C4.70713 6.69939 4.93808 5.97744 5.28459 5.54409C5.66003 5.0821 6.12202 4.96672 6.69949 4.96672C7.27714 4.96672 7.76795 5.19776 8.11456 5.54409C8.46108 6.00617 8.69203 6.69939 8.69203 7.537V8.46099C8.69203 8.69175 8.92298 8.83623 9.03855 8.83623H13.1391C13.3701 8.83623 13.4856 8.69175 13.4856 8.46099V7.537C13.4856 5.42871 13.0236 3.43626 11.7242 2.13684C10.6845 0.693034 8.77859 0 6.78614 0ZM46.9828 0.346425H42.8822C42.6512 0.346425 42.5356 0.461992 42.5356 0.693034V16.9217C42.5356 17.7303 42.2758 18.3366 41.9293 18.7989C41.5827 19.2609 41.1206 19.3763 40.5432 19.3763C39.9657 19.3763 39.4747 19.1452 39.1283 18.7989C38.7817 18.3366 38.5508 17.7303 38.5508 16.9217V0.693034C38.5508 0.461992 38.2908 0.346425 38.1754 0.346425H34.0749C33.8439 0.346425 33.7284 0.461992 33.7284 0.693034V17.0374C33.7284 19.1453 34.2193 21.1378 35.4898 22.4371C36.7892 23.7367 38.5508 24.4298 40.5432 24.4298C42.6514 24.4298 44.4417 23.7368 45.5967 22.4371C46.8961 21.1668 47.3581 19.2899 47.3581 17.0374V0.693034C47.3293 0.577651 47.2137 0.346425 46.9828 0.346425ZM81.5194 0.346425H77.4189C77.188 0.346425 77.0725 0.577651 77.0725 0.693034V9.61574H72.972V0.693034C72.972 0.461992 72.741 0.346425 72.6254 0.346425H68.5248C68.2938 0.346425 68.1784 0.577651 68.1784 0.693034V23.5925C68.1784 23.8235 68.4095 23.939 68.5248 23.939H72.6254C72.8564 23.939 72.972 23.7078 72.972 23.5925V14.4385H77.0725V23.5925C77.0725 23.8235 77.3035 23.939 77.4189 23.939H81.5194C81.7505 23.939 81.8661 23.7078 81.8661 23.5925V0.693034C81.8661 0.577651 81.7505 0.346425 81.5194 0.346425Z" fill="#F63440"/>
</svg>
