<svg width="152" height="25" viewBox="0 0 152 25" fill="none" xmlns="http://www.w3.org/2000/svg">
<path d="M0 24.1595V0H10.0513C14.3759 0 17.1881 3.15088 17.1881 7.34157C17.1881 11.5323 14.3759 14.691 10.0513 14.691H3.84409V24.1437L0 24.1595ZM3.84409 3.26117V11.4614H9.87805C11.8001 11.4614 13.344 9.50781 13.344 7.34157C13.344 5.17533 11.7686 3.26117 9.87805 3.26117H3.84409ZM36.5819 19.0865C37.8186 18.8423 39.0238 18.606 40.2212 18.4012C40.4653 19.7719 41.2846 21.4182 44.0652 21.4182C44.6875 21.4182 47.736 21.1819 47.736 18.9841C47.736 14.8328 37.1018 19.118 37.1018 11.6741C37.1018 8.72009 40.0479 6.49083 43.758 6.49083C47.4682 6.49083 50.6191 8.06628 51.139 11.9104C49.9023 12.1231 48.6971 12.3594 47.4997 12.6036C47.2555 10.4373 45.9243 9.64961 43.8604 9.64961C42.0408 9.64961 40.8041 10.6106 40.8041 11.6741C40.8041 13.0841 42.1117 13.4543 44.1676 13.667C48.1063 14.0766 51.4068 14.9352 51.4068 18.9841C51.4068 22.6234 48.2559 24.5454 44.0652 24.5454C39.6067 24.5454 37.0624 22.1823 36.5819 19.0865ZM52.3757 9.63385V6.79804H55.3612V1.75662H59.0714V6.76654H62.6713V9.63385H59.0714V19.4804C59.0714 20.851 59.481 21.2685 60.6468 21.2685C61.1588 21.2685 62.2932 21.1976 62.2932 21.1976V24.1831C62.2932 24.1831 60.9619 24.317 59.6464 24.317C56.3852 24.317 55.3218 22.5683 55.3218 19.2441V9.63385H52.3757ZM75.5821 14.4862C75.5821 11.8395 74.9991 9.61022 72.2185 9.61022C69.5717 9.61022 68.8549 11.8395 68.8549 14.4862V24.1595H65.1447V6.82956H68.5083L68.8549 8.71221C69.3669 7.75119 71.4307 6.48295 73.4552 6.48295C74.4239 6.42614 75.3893 6.63992 76.2435 7.10039C77.0976 7.56085 77.8068 8.24984 78.2918 9.09032C79.2213 7.51487 81.4427 6.48295 83.5066 6.48295C88.2329 6.48295 89.6823 9.36602 89.6823 14.5177V24.191H86.0273V14.4862C86.0273 11.871 85.3104 9.5787 82.6637 9.5787C79.883 9.5787 79.3001 11.808 79.3001 14.4862V24.1595H75.5978L75.5821 14.4862ZM96.4094 12.7847C95.2121 12.5799 93.9754 12.3042 92.7387 12.0994C93.1168 8.25534 96.2755 6.4672 99.9148 6.4672C104.822 6.4672 107.359 8.83037 107.359 13.604V19.6458C107.359 20.6777 107.564 21.2606 108.288 21.2606C108.59 21.2563 108.89 21.2085 109.178 21.1189V24.1437C108.462 24.3378 107.723 24.4307 106.981 24.4194C106.258 24.4657 105.545 24.2362 104.985 23.7771C104.425 23.318 104.06 22.6636 103.964 21.946C103.298 22.739 102.47 23.3795 101.534 23.824C100.599 24.2684 99.5795 24.5064 98.5442 24.5218C94.5268 24.5218 92.1242 22.2847 92.1242 19.0078C92.1242 16.298 94.6292 13.8245 99.2138 13.8245H103.68V12.7847C103.68 11.4456 103.129 9.63385 99.9385 9.63385C97.8116 9.63385 96.504 10.6973 96.4331 12.7847M103.68 17.4481V16.5895H99.5919C96.5434 16.5895 95.9211 18.1649 95.9211 18.992C95.9211 20.1578 96.7088 21.3552 98.9774 21.3552C101.994 21.3552 103.704 19.2992 103.704 17.4166M26.2154 24.5376C24.4284 24.5376 22.6816 24.0077 21.1957 23.0149C19.7099 22.0221 18.5519 20.611 17.868 18.96C17.1842 17.3091 17.0052 15.4924 17.3539 13.7397C17.7025 11.987 18.563 10.3771 19.8266 9.11355C21.0902 7.84996 22.7001 6.98943 24.4528 6.64081C26.2054 6.29218 28.0221 6.47111 29.673 7.15496C31.324 7.83882 32.7351 8.99687 33.7279 10.4827C34.7207 11.9685 35.2506 13.7154 35.2506 15.5024C35.2485 17.898 34.2959 20.1949 32.602 21.8889C30.908 23.5829 28.6111 24.5355 26.2154 24.5376ZM26.2154 9.91743C25.1089 9.91743 24.0273 10.2456 23.1074 10.8605C22.1875 11.4754 21.4707 12.3494 21.0476 13.3718C20.6245 14.3942 20.5142 15.5192 20.7306 16.6043C20.9471 17.6894 21.4805 18.6859 22.2635 19.4678C23.0465 20.2496 24.0437 20.7817 25.1292 20.9966C26.2146 21.2115 27.3394 21.0996 28.3612 20.6751C29.383 20.2506 30.2559 19.5325 30.8695 18.6117C31.4831 17.691 31.8098 16.6089 31.8083 15.5024C31.8062 14.0204 31.216 12.5999 30.1674 11.5527C29.1187 10.5056 27.6974 9.91743 26.2154 9.91743ZM132.243 18.1255C133.377 18.4327 134.504 18.7714 135.638 19.118C134.85 21.623 132.487 24.5061 127.761 24.5061C123.035 24.5061 119.592 20.8353 119.592 15.4787C119.592 10.1222 122.743 6.45145 127.588 6.45145C132.432 6.45145 135.418 9.68111 135.418 14.9274C135.428 15.4797 135.404 16.0321 135.347 16.5816H123.42C123.491 19.118 125.24 21.3788 127.745 21.3788C128.748 21.407 129.733 21.1034 130.546 20.5152C131.359 19.9271 131.956 19.0871 132.243 18.1255ZM131.455 13.8009C131.353 11.225 130.116 9.5787 127.572 9.5787C125.027 9.5787 123.696 11.6347 123.594 13.8009H131.455ZM137.009 19.0865C138.245 18.8502 139.451 18.606 140.648 18.4012C140.892 19.7719 141.711 21.4182 144.492 21.4182C145.107 21.4182 148.163 21.1819 148.163 18.9841C148.163 14.8328 137.529 19.1259 137.529 11.6741C137.529 8.72797 140.475 6.49083 144.185 6.49083C147.895 6.49083 151.046 8.06628 151.558 11.9182C150.329 12.123 149.124 12.3594 147.927 12.6036C147.682 10.4373 146.351 9.64961 144.287 9.64961C142.468 9.64961 141.231 10.6106 141.231 11.6741C141.231 13.0841 142.539 13.4622 144.594 13.667C148.533 14.0766 151.834 14.9352 151.834 18.9841C151.834 22.6234 148.683 24.5454 144.492 24.5454C140.034 24.5454 137.489 22.1823 137.009 19.0865ZM108.627 9.63385V6.79804H111.613V1.75662H115.323V6.76654H118.923V9.63385H115.323V19.4804C115.323 20.851 115.732 21.2685 116.938 21.2685C117.45 21.2685 118.584 21.1976 118.584 21.1976V24.1831C118.584 24.1831 117.26 24.317 115.937 24.317C112.684 24.317 111.613 22.5683 111.613 19.2441V9.63385H108.627Z" fill="black"/>
</svg>
