<svg width="152" height="25" viewBox="0 0 152 25" fill="none" xmlns="http://www.w3.org/2000/svg">
<path d="M80.3047 0H97.2059V4.13536H84.8701V10.0076H96.8627V14.0023H84.8701V19.9738H97.2059V24.1092H80.3047V0ZM143.882 24.5434C149.063 24.5434 151.983 22.0622 151.983 18.6546C151.983 16.2272 150.254 14.4159 146.636 13.6302L142.811 12.8486C140.59 12.435 139.891 12.0215 139.891 11.1944C139.891 10.1234 140.962 9.46584 142.935 9.46584C145.073 9.46584 146.657 10.0407 147.07 12.0174H151.553C151.309 8.29554 148.633 5.83913 143.208 5.83913C138.518 5.83913 135.226 7.77448 135.226 11.5253C135.226 14.1181 137.038 15.8054 140.946 16.6283L145.222 17.6166C146.909 17.9475 147.36 18.4024 147.36 19.1012C147.36 20.2136 146.086 20.9125 144.027 20.9125C141.438 20.9125 139.957 20.3377 139.382 18.361H134.875C135.532 22.0746 138.287 24.5434 143.882 24.5434ZM133.572 24.0926H128.722C125.678 24.0926 123.991 22.1986 123.991 19.8084V10.3384H120.579V6.30229H124.007V1.23647H128.515V6.30229H133.572V10.3384H128.515V18.6546C128.515 19.6016 129.172 20.0565 130.202 20.0565H133.572V24.0926ZM114.136 6.31056V7.91508C112.549 6.57351 110.536 5.84056 108.458 5.8474C107.214 5.82123 105.977 6.04368 104.82 6.5017C103.663 6.95973 102.609 7.64411 101.72 8.51475C100.831 9.38538 100.124 10.4247 99.6422 11.5719C99.16 12.7191 98.9116 13.951 98.9116 15.1954C98.9116 16.4398 99.16 17.6717 99.6422 18.8189C100.124 19.966 100.831 21.0054 101.72 21.876C102.609 22.7467 103.663 23.431 104.82 23.8891C105.977 24.3471 107.214 24.5695 108.458 24.5434C110.537 24.5524 112.55 23.8192 114.136 22.4757V24.0843H118.631V6.30229L114.136 6.31056ZM108.83 20.6396C107.752 20.6519 106.695 20.3433 105.792 19.7531C104.89 19.163 104.183 18.3178 103.762 17.325C103.341 16.3323 103.225 15.2367 103.428 14.1777C103.631 13.1187 104.144 12.1439 104.903 11.3773C105.661 10.6108 106.63 10.087 107.687 9.87255C108.744 9.65811 109.841 9.76271 110.838 10.1731C111.835 10.5834 112.688 11.2809 113.287 12.1771C113.887 13.0732 114.207 14.1274 114.206 15.2057C114.213 15.9166 114.078 16.6217 113.811 17.2802C113.543 17.9387 113.147 18.5376 112.647 19.0422C112.146 19.5468 111.55 19.947 110.894 20.2198C110.237 20.4926 109.533 20.6324 108.822 20.6313L108.83 20.6396Z" fill="#05C167"/>
<path d="M70.2474 9.63953C67.9854 9.63953 66.3809 11.4095 66.3809 14.1264V24.0926H62.9279V6.55041H66.3395V8.69253C66.7603 7.98256 67.3634 7.39804 68.0862 6.99958C68.8089 6.60112 69.6251 6.4032 70.4501 6.42635H71.6907V9.63953H70.2474ZM60.5417 15.3215C60.5417 10.0903 56.8199 6.17823 51.783 6.17823C50.593 6.18631 49.4162 6.42962 48.3205 6.89418C47.2248 7.35873 46.2318 8.03535 45.3985 8.8851C44.5653 9.73486 43.9083 10.741 43.4654 11.8456C43.0224 12.9502 42.8023 14.1315 42.8176 15.3215C42.8176 20.5486 46.8495 24.502 52.1097 24.502C53.5791 24.5298 55.0336 24.2039 56.3506 23.5519C57.6677 22.8998 58.8087 21.9407 59.6775 20.7554L57.1714 18.9193C56.5965 19.7217 55.8357 20.373 54.9543 20.8173C54.0728 21.2616 53.0968 21.4859 52.1097 21.4708C50.7039 21.4642 49.3471 20.9541 48.285 20.0332C47.2229 19.1122 46.5258 17.8412 46.3202 16.4505H60.55L60.5417 15.3215ZM46.3947 13.7129C47.0108 11.0373 49.1488 9.22599 51.7417 9.22599C54.3346 9.22599 56.4684 11.0373 57.0474 13.7129H46.3947ZM31.8795 6.17823C30.7256 6.1792 29.5832 6.40884 28.5185 6.85389C27.4538 7.29893 26.4879 7.95055 25.6765 8.7711V0H22.2235V24.0926H25.6351V21.8678C27.2879 23.5398 29.5368 24.4872 31.8878 24.502C33.1073 24.5279 34.3198 24.3101 35.454 23.8613C36.5883 23.4125 37.6215 22.7418 38.4932 21.8885C39.3648 21.0352 40.0573 20.0164 40.5301 18.8919C41.0029 17.7675 41.2464 16.5599 41.2464 15.3401C41.2464 14.1203 41.0029 12.9128 40.5301 11.7883C40.0573 10.6639 39.3648 9.64509 38.4932 8.79177C37.6215 7.93844 36.5883 7.26772 35.454 6.81893C34.3198 6.37014 33.1073 6.15232 31.8878 6.17823H31.8795ZM31.6314 21.417C30.4278 21.4228 29.2497 21.0708 28.2464 20.4059C27.2432 19.741 26.46 18.793 25.9964 17.6823C25.5328 16.5715 25.4096 15.3481 25.6424 14.1673C25.8752 12.9864 26.4535 11.9013 27.304 11.0496C28.1545 10.198 29.2388 9.61816 30.4193 9.38375C31.5999 9.14933 32.8235 9.27089 33.9348 9.73299C35.0462 10.1951 35.9952 10.9769 36.6615 11.9793C37.3279 12.9816 37.6814 14.1593 37.6773 15.3629C37.6784 16.1567 37.5227 16.943 37.2192 17.6766C36.9156 18.4101 36.4702 19.0765 35.9084 19.6375C35.3467 20.1985 34.6797 20.643 33.9457 20.9455C33.2118 21.2481 32.4253 21.4027 31.6314 21.4005V21.417ZM9.5072 21.2516C12.8403 21.2516 15.429 18.696 15.429 14.8666V0H19.0061V24.0926H15.4704V21.814C14.6443 22.6678 13.6537 23.3451 12.5583 23.805C11.463 24.2649 10.2857 24.4978 9.0978 24.4896C3.95754 24.4896 0 20.743 0 15.061V0H3.64326V14.8873C3.64326 18.7373 6.12448 21.2516 9.5072 21.2516Z" fill="black"/>
</svg>
